#!OML:ASF E:\Style4\Style4.ASF
:FULLY-SPECIFIED
:DEGREES
999
root -0.0882563 17.2454 -0.723091 1.76098 20.4159 1.53507
lowerback 15.2973 4.14816 -0.0839615
upperback 10.8039 5.57937 0.810672
thorax 2.84027 2.83792 0.204501
lowerneck 9.93645 -2.52556 -5.77354
upperneck 1.97657 -3.88789 2.50645
head -0.902527 -1.99201 1.92688
rclavicle 1.35174e-014 2.22639e-014
rhumerus 20.9148 16.1068 -81.8179
rradius 126.337
rwrist 20.6427
rhand 39.229 -12.3269
rfingers 7.12502
rthumb 61.753 -24.1249
lclavicle 1.35174e-014 2.22639e-014
lhumerus 26.5027 -19.0874 81.3537
lradius 130.612
lwrist -12.5618
lhand 25.9252 45.7219
lfingers 7.12502
lthumb 50.0092 66.9398
rfemur -19.1284 -19.4451 17.5147
rtibia 46.1566
rfoot -25.6693 -22.9833
rtoes -11.8179
lfemur -25.059 -8.18636 -20.2719
ltibia 44.6072
lfoot -19.576 3.996
ltoes -17.4685
1000
root -0.079119 17.2258 -0.718239 1.61273 20.4575 1.54177
lowerback 15.3689 4.13454 -0.121533
upperback 10.8868 5.559 0.833258
thorax 2.88706 2.82606 0.250239
lowerneck 9.96207 -2.51804 -5.79075
upperneck 1.94495 -3.88089 2.54384
head -0.916678 -1.98913 1.94321
rclavicle -9.10434e-014 3.10104e-014
rhumerus 19.9972 16.3538 -82.0999
rradius 126.921
rwrist 20.5094
rhand 39.3821 -12.4206
rfingers 7.12502
rthumb 61.881 -24.0618
lclavicle -9.10434e-014 3.10104e-014
lhumerus 25.5837 -19.3336 81.5702
lradius 131.329
lwrist -12.2291
lhand 26.1077 45.8311
lfingers 7.12502
lthumb 50.1761 66.9608
rfemur -19.0793 -19.5772 17.3976
rtibia 46.5021
rfoot -26.6854 -22.3918
rtoes -9.18907
lfemur -25.0647 -8.15256 -20.3259
ltibia 44.9404
lfoot -19.7326 3.95482
ltoes -17.5859
1001
root -0.0669226 17.2081 -0.711309 1.47613 20.4945 1.48931
lowerback 15.421 4.15109 0.0366842
upperback 10.9421 5.60075 0.793895
thorax 2.93909 2.85805 0.11631
lowerneck 10.0627 -2.55943 -5.62353
upperneck 1.84513 -3.92238 2.58741
head -0.966408 -2.00924 1.93335
rclavicle 5.1684e-015 -2.78299e-014
rhumerus 18.9972 16.3918 -82.4466
rradius 127.564
rwrist 20.3163
rhand 39.4949 -12.4535
rfingers 7.12502
rthumb 61.9752 -23.9783
lclavicle 5.1684e-015 -2.78299e-014
lhumerus 24.6751 -19.7987 81.8523
lradius 132.033
lwrist -11.9766
lhand 26.4152 46.0324
lfingers 7.12502
lthumb 50.4572 67.0117
rfemur -19.0328 -19.703 17.3402
rtibia 46.7976
rfoot -28.0987 -21.5008
rtoes -4.63815
lfemur -25.0719 -8.09053 -20.329
ltibia 45.2363
lfoot -19.8978 3.91383
ltoes -18.2247
1002
root -0.0549949 17.1911 -0.702529 1.3905 20.5087 1.55103
lowerback 15.4404 4.18973 0.0626885
upperback 11.0169 5.65677 0.745046
thorax 3.01814 2.8906 0.0470917
lowerneck 10.1209 -2.61797 -5.53544
upperneck 1.72934 -3.99227 2.66507
head -1.01102 -2.04445 1.94905
rclavicle -1.11319e-014 -1.35174e-014
rhumerus 18.0689 16.4565 -82.7617
rradius 128.215
rwrist 20.0981
rhand 39.6813 -12.576
rfingers 7.12502
rthumb 62.1305 -23.9064
lclavicle -1.11319e-014 -1.35174e-014
lhumerus 23.7598 -20.1762 82.2493
lradius 132.79
lwrist -11.7181
lhand 26.921 46.3124
lfingers 7.12502
lthumb 50.9187 67.0391
rfemur -18.9925 -19.7862 17.1749
rtibia 47.0381
rfoot -28.1745 -21.4356
rtoes -4.50215
lfemur -25.049 -8.02095 -20.4447
ltibia 45.4984
lfoot -20.0951 3.86447
ltoes -18.839
1003
root -0.0430645 17.1779 -0.695964 1.31299 20.4778 1.64033
lowerback 15.4453 4.17773 -0.0704388
upperback 11.1124 5.62781 0.741011
thorax 3.10733 2.86985 0.124651
lowerneck 10.0564 -2.59122 -5.54892
upperneck 1.69756 -3.95567 2.67296
head -1.01145 -2.02616 1.95182
rclavicle 1.19271e-015 -3.18055e-014
rhumerus 17.2627 16.8434 -83.0427
rradius 128.87
rwrist 19.7371
rhand 40.0604 -12.7797
rfingers 7.12502
rthumb 62.4452 -23.708
lclavicle 1.19271e-015 -3.18055e-014
lhumerus 22.8355 -20.2685 82.6465
lradius 133.494
lwrist -11.4407
lhand 27.2552 46.5163
lfingers 7.12502
lthumb 51.2232 67.0723
rfemur -18.9419 -19.7957 16.9869
rtibia 47.2141
rfoot -26.8961 -22.246
rtoes -9.06527
lfemur -24.9967 -7.93784 -20.5933
ltibia 45.7224
lfoot -20.1838 3.73442
ltoes -18.5931
1004
root -0.0323581 17.1702 -0.690064 1.1898 20.4651 1.53044
lowerback 15.4448 4.19586 0.0609982
upperback 11.1731 5.6681 0.739997
thorax 3.18644 2.89826 0.0499991
lowerneck 10.0323 -2.63297 -5.33743
upperneck 1.73598 -3.9872 2.60309
head -0.9978 -2.03977 1.8909
rclavicle -1.35174e-014 -4.77083e-015
rhumerus 16.4563 16.9947 -83.3788
rradius 129.485
rwrist 19.281
rhand 40.5779 -12.758
rfingers 7.12502
rthumb 62.8725 -23.1214
lclavicle -1.35174e-014 -4.77083e-015
lhumerus 21.9528 -20.5048 83.0046
lradius 134.128
lwrist -11.0813
lhand 27.4172 46.4979
lfingers 7.12502
lthumb 51.3706 66.9701
rfemur -18.8672 -19.7648 17.0303
rtibia 47.3221
rfoot -25.9829 -22.9546
rtoes -12.8526
lfemur -24.9667 -7.85501 -20.5191
ltibia 45.9109
lfoot -20.2635 3.54143
ltoes -18.0685
1005
root -0.0242884 17.1626 -0.684741 1.03169 20.5112 1.33726
lowerback 15.4841 4.23498 0.339556
upperback 11.2287 5.75299 0.738123
thorax 3.25447 2.95794 -0.114994
lowerneck 10.0457 -2.73749 -5.08286
upperneck 1.7245 -4.09805 2.57579
head -1.00359 -2.0932 1.84093
rclavicle -3.29983e-014 -8.74653e-015
rhumerus 15.7167 16.8841 -83.6551
rradius 130.077
rwrist 18.7673
rhand 41.1465 -12.4961
rfingers 7.12502
rthumb 63.3385 -22.2172
lclavicle -3.29983e-014 -8.74653e-015
lhumerus 21.2628 -20.8447 83.427
lradius 134.628
lwrist -10.6328
lhand 27.6364 46.2776
lfingers 7.12502
lthumb 51.5699 66.6353
rfemur -18.7309 -19.7544 17.1735
rtibia 47.3789
rfoot -26.6575 -22.6528
rtoes -10.9498
lfemur -24.9393 -7.78053 -20.3465
ltibia 46.0681
lfoot -20.3342 3.38886
ltoes -18.0365
1006
root -0.0163496 17.1563 -0.677373 0.880977 20.5301 1.22514
lowerback 15.4962 4.22129 0.390624
upperback 11.2933 5.74188 0.798273
thorax 3.31704 2.95397 -0.0763488
lowerneck 10.0641 -2.73943 -5.10657
upperneck 1.74973 -4.10413 2.5487
head -0.998394 -2.0959 1.83648
rclavicle -2.5842e-014 1.27222e-014
rhumerus 15.0828 17.0716 -83.7922
rradius 130.591
rwrist 18.1986
rhand 41.5499 -12.3206
rfingers 7.12502
rthumb 63.6669 -21.5717
lclavicle -2.5842e-014 1.27222e-014
lhumerus 20.5372 -20.891 83.9744
lradius 135.123
lwrist -10.1885
lhand 28.0626 46.3219
lfingers 7.12502
lthumb 51.957 66.453
rfemur -18.5507 -19.7113 17.2228
rtibia 47.3881
rfoot -27.6948 -21.9748
rtoes -7.17751
lfemur -24.8421 -7.72898 -20.2629
ltibia 46.1663
lfoot -20.4127 3.29402
ltoes -17.923
